<svg width="637" height="251" viewBox="0 0 637 251" fill="none" xmlns="http://www.w3.org/2000/svg">
<path d="M407.714 85.3612C401.352 79.2741 391.883 75.8924 383.625 75.8924C363.328 75.8924 351.02 91.3146 351.02 110.802C351.02 126.366 360.087 142.464 383.625 142.464C391.065 142.464 397.561 140.844 405.001 134.89V118.116H380.779V102.151H421.374V142.063C412.039 152.75 400.266 159.113 383.625 159.113C348.039 159.113 333.561 135.708 333.561 110.81C333.561 84.1572 350.202 59.5264 383.625 59.5264C396.342 59.5264 409.066 64.3946 418.803 74.0046L407.706 85.3687L407.714 85.3612Z" fill="#04621F"/>
<path d="M518.522 88.3346L487.67 129.465H484.154L453.979 88.1934V157.069H436.119V62.3511H456.685L486.317 103.08L515.95 62.3511H536.382V157.069H518.522V88.3346Z" fill="#04621F"/>
<path d="M636.638 145.028C626.894 154.638 614.311 159.097 600.643 159.097C565.466 159.097 550.579 134.875 550.445 110.252C550.311 85.4947 566.41 60.3213 600.643 60.3213C613.494 60.3213 625.676 65.1895 635.419 74.7995L623.513 86.2974C617.292 80.2103 608.901 77.3637 600.643 77.3637C577.774 77.3637 567.896 94.4135 568.03 110.244C568.164 125.942 577.231 142.315 600.643 142.315C608.893 142.315 618.236 138.933 624.457 132.705L636.631 145.02L636.638 145.028Z" fill="#04621F"/>
<path d="M365.47 201.826V215.16C363.635 216.996 361.569 218.393 359.287 219.352C357.005 220.303 354.567 220.779 351.981 220.779C348.406 220.779 345.225 220.006 342.452 218.453C339.673 216.907 337.51 214.729 335.964 211.942C334.411 209.147 333.638 205.944 333.638 202.339C333.638 198.735 334.411 195.524 335.964 192.729C337.51 189.935 339.688 187.764 342.475 186.218C345.269 184.672 348.473 183.892 352.077 183.892C356.983 183.892 361.241 185.661 364.854 189.206L363.375 190.789C361.843 189.258 360.112 188.084 358.187 187.266C356.262 186.449 354.225 186.04 352.077 186.04C348.911 186.04 346.102 186.724 343.649 188.084C341.196 189.444 339.286 191.362 337.926 193.829C336.566 196.297 335.882 199.136 335.882 202.339C335.882 205.543 336.566 208.322 337.926 210.797C339.286 213.265 341.189 215.19 343.619 216.572C346.057 217.955 348.837 218.638 351.973 218.638C354.121 218.638 356.187 218.244 358.179 217.464C360.171 216.684 361.866 215.591 363.263 214.194V203.974H350.39V201.826H365.463H365.47Z" fill="#04621F"/>
<path d="M416.822 206.479H406.447V220.222H404.202V184.457H419.684C422.003 184.457 424.032 184.918 425.786 185.839C427.54 186.761 428.892 188.054 429.851 189.719C430.803 191.391 431.278 193.316 431.278 195.494C431.278 197.672 430.803 199.589 429.851 201.239C428.9 202.889 427.555 204.175 425.815 205.097C424.076 206.018 422.055 206.479 419.736 206.479L432.408 220.222H429.494L416.822 206.479ZM426.507 189.058C424.819 187.46 422.545 186.657 419.684 186.657H406.447V204.339H419.684C422.545 204.339 424.819 203.536 426.507 201.938C428.194 200.34 429.034 198.192 429.034 195.502C429.034 192.811 428.194 190.663 426.507 189.065V189.058Z" fill="#04621F"/>
<path d="M476.367 218.482C473.625 216.914 471.484 214.729 469.953 211.919C468.422 209.11 467.657 205.914 467.657 202.339C467.657 198.764 468.422 195.568 469.953 192.759C471.484 189.949 473.625 187.764 476.367 186.196C479.11 184.628 482.217 183.847 485.695 183.847C489.173 183.847 492.28 184.635 495.015 186.196C497.758 187.764 499.898 189.949 501.429 192.759C502.96 195.568 503.726 198.764 503.726 202.339C503.726 205.914 502.96 209.11 501.429 211.919C499.898 214.729 497.758 216.921 495.015 218.482C492.273 220.05 489.166 220.831 485.695 220.831C482.224 220.831 479.11 220.05 476.367 218.482ZM493.841 216.616C496.242 215.234 498.115 213.302 499.46 210.819C500.805 208.337 501.481 205.505 501.481 202.339C501.481 199.173 500.813 196.341 499.46 193.859C498.115 191.376 496.242 189.436 493.841 188.061C491.44 186.679 488.727 185.995 485.695 185.995C482.663 185.995 479.942 186.686 477.542 188.061C475.141 189.444 473.268 191.376 471.923 193.859C470.578 196.348 469.901 199.173 469.901 202.339C469.901 205.505 470.57 208.337 471.923 210.819C473.268 213.309 475.141 215.241 477.542 216.616C479.942 217.999 482.655 218.683 485.695 218.683C488.735 218.683 491.44 217.991 493.841 216.616Z" fill="#04621F"/>
<path d="M548.181 218.995C546.07 217.806 544.428 216.126 543.246 213.964C542.072 211.801 541.484 209.326 541.484 206.531V184.457H543.729V206.531C543.729 208.917 544.219 211.02 545.208 212.841C546.196 214.662 547.579 216.089 549.348 217.107C551.117 218.126 553.146 218.638 555.427 218.638C557.709 218.638 559.738 218.126 561.507 217.107C563.276 216.082 564.658 214.662 565.647 212.841C566.635 211.02 567.126 208.917 567.126 206.531V184.457H569.371V206.531C569.371 209.326 568.783 211.801 567.609 213.964C566.435 216.126 564.792 217.806 562.681 218.995C560.571 220.184 558.148 220.786 555.427 220.786C552.707 220.786 550.284 220.192 548.173 218.995H548.181Z" fill="#04621F"/>
<path d="M631.073 185.935C632.864 186.923 634.225 188.306 635.161 190.075C636.098 191.851 636.566 193.872 636.566 196.154C636.566 198.436 636.098 200.406 635.161 202.16C634.225 203.914 632.857 205.289 631.051 206.27C629.245 207.258 627.119 207.749 624.666 207.749H611.742V220.213H609.497V184.448H624.674C627.164 184.448 629.297 184.946 631.088 185.935H631.073ZM631.816 202.999C633.518 201.26 634.373 198.964 634.373 196.102C634.373 193.241 633.518 190.944 631.816 189.205C630.114 187.466 627.714 186.596 624.615 186.596H611.742V205.601H624.615C627.714 205.601 630.114 204.731 631.816 202.992V202.999Z" fill="#04621F"/>
<path d="M144.178 30.2202C136.597 30.2202 129.195 30.9857 122.052 32.4499V58.6193H91.8248V43.4647C84.0505 47.6863 76.8337 52.8146 70.3304 58.7159H91.8248V88.0142H62.5264V66.557C56.2387 73.5286 50.8502 81.3177 46.4948 89.7311H56.4022V119.565H36.1862C34.9227 126.239 34.2314 133.121 34.2314 140.175C34.2314 200.897 83.456 250.129 144.186 250.129C204.916 250.129 254.14 200.904 254.14 140.175C254.14 79.4447 204.901 30.2202 144.178 30.2202ZM126.631 105.562H98.6774V77.6089H126.631V105.562Z" fill="#04621F"/>
<path d="M13.3708 22.4385H0V35.8093H13.3708V22.4385Z" fill="#04621F"/>
<path d="M17.7563 0H7.81177V9.94449H17.7563V0Z" fill="#04621F"/>
<path d="M47.7908 11.5054H28.3105V30.9856H47.7908V11.5054Z" fill="#04621F"/>
<path d="M80.6106 17.0942H59.9041V37.8008H80.6106V17.0942Z" fill="#04621F"/>
<path d="M40.9023 49.2832H13.2688V76.9167H40.9023V49.2832Z" fill="#04621F"/>
<path d="M122.056 32.4496V28.0942H91.8289V43.4644C101.171 38.3955 111.331 34.6421 122.056 32.4496Z" fill="#04621F"/>
<path d="M46.6366 89.4409H26.5618V119.274H36.2313C38.2677 108.713 41.813 98.6942 46.6366 89.4409Z" fill="#04621F"/>
<path d="M157.14 249.065L158.27 248.805L159.236 248.5L160.745 248.173L162.774 247.794L164.989 247.222L166.824 246.917L172.324 246.219L172.518 246.278L171.745 246.494L171.128 246.657L169.946 246.955L169.195 247.133L168.467 247.304L167.486 247.527L165.353 247.973L164.052 248.225L162.536 248.5L161.51 248.671L159.942 248.917L159.637 248.961L159.043 249.043L158.612 249.102L157.943 249.192L157.37 249.266L156.798 249.333C137.251 224.286 131.149 192.84 137.994 162.516C122.111 92.6811 200.092 75.6387 200.092 75.6387C200.092 75.6387 222.485 136.339 150.919 178.882C150.51 166.202 153.379 136.941 182.306 102.44C180.21 104.127 146.363 132.333 144.654 173.144C143.494 200.814 151.729 225.661 172.562 246.271" fill="white"/>
<path d="M207.441 163.326C207.441 163.326 220.752 204.977 171.163 231.563C171.267 223.001 174.077 203.275 194.709 180.837C194.709 180.837 166.511 201.93 166.786 233.785C144.385 174.207 207.441 163.326 207.441 163.326Z" fill="white"/>
<path d="M74.4618 166.789C74.4618 166.789 117.926 161.966 134.181 215.836C125.804 214.044 107.03 207.385 89.1109 182.732C89.1109 182.732 104.213 214.535 135.496 220.563C72.6706 230.745 74.4618 166.789 74.4618 166.789Z" fill="white"/>
<path fill-rule="evenodd" clip-rule="evenodd" d="M138.008 162.523C122.125 92.6884 200.106 75.646 200.106 75.646C200.106 75.646 222.499 136.346 150.926 178.889C150.517 166.209 153.386 136.896 182.387 102.38C181.302 103.25 146.4 131.693 144.66 173.151" fill="white"/>
<path d="M62.5225 66.556L70.3339 58.7148H91.8208V88.0132H62.5225V66.556Z" fill="#04621F"/>
</svg>
